HIERARCHY
ROOT Hips
{
	OFFSET	0.00	0.00	0.00
	CHANNELS 6 Xposition Yposition Zposition Zrotation Xrotation Yrotation
	JOINT LeftUpLeg
	{
		OFFSET	 0.126116	-0.065224	 0.014019
		CHANNELS 3 Zrotation Xrotation Yrotation
		JOINT LeftLeg
		{
			OFFSET	 0.000000	 0.569914	 0.000000
			CHANNELS 3 Zrotation Xrotation Yrotation
			JOINT LeftFoot
			{
				OFFSET	 0.000000	 0.544423	 0.000000
				CHANNELS 3 Zrotation Xrotation Yrotation
				JOINT LeftToeBase
				{
					OFFSET	 0.000000	 0.207117	 0.000000
					CHANNELS 3 Zrotation Xrotation Yrotation
					End Site
					{
						OFFSET	 0.000000	 0.207117	 0.000000
					}
				}
			}
		}
	}
	JOINT RightUpLeg
	{
		OFFSET	-0.124023	-0.065224	 0.008373
		CHANNELS 3 Zrotation Xrotation Yrotation
		JOINT RightLeg
		{
			OFFSET	 0.000000	 0.570047	 0.000000
			CHANNELS 3 Zrotation Xrotation Yrotation
			JOINT RightFoot
			{
				OFFSET	 0.000000	 0.544354	 0.000000
				CHANNELS 3 Zrotation Xrotation Yrotation
				JOINT RightToeBase
				{
					OFFSET	 0.000000	 0.207540	 0.000000
					CHANNELS 3 Zrotation Xrotation Yrotation
					End Site
					{
						OFFSET	 0.000000	 0.207540	 0.000000
					}
				}
			}
		}
	}
	JOINT Spine
	{
		OFFSET	 0.000184	 0.117403	 0.007763
		CHANNELS 3 Zrotation Xrotation Yrotation
		JOINT Spine1
		{
			OFFSET	 0.000000	 0.137269	 0.000000
			CHANNELS 3 Zrotation Xrotation Yrotation
			JOINT Spine2
			{
				OFFSET	 0.000000	 0.156879	 0.000000
				CHANNELS 3 Zrotation Xrotation Yrotation
				JOINT LeftShoulder
				{
					OFFSET	 0.080501	 0.160143	 0.002496
					CHANNELS 3 Zrotation Xrotation Yrotation
					JOINT LeftArm
					{
						OFFSET	 0.000000	 0.164363	 0.000000
						CHANNELS 3 Zrotation Xrotation Yrotation
						JOINT LeftForeArm
						{
							OFFSET	 0.000000	 0.364576	 0.000000
							CHANNELS 3 Zrotation Xrotation Yrotation
							JOINT LeftHand
							{
								OFFSET	 0.000000	 0.360812	 0.000000
								CHANNELS 3 Zrotation Xrotation Yrotation
								JOINT LeftHandIndex1
								{
									OFFSET	 0.000000	 0.086006	 0.000000
									CHANNELS 3 Zrotation Xrotation Yrotation
									JOINT LeftHandIndex2
									{
										OFFSET	 0.000000	 0.047237	 0.000000
										CHANNELS 3 Zrotation Xrotation Yrotation
										JOINT LeftHandIndex3
										{
											OFFSET	-0.004284	 0.038165	 0.000551
											CHANNELS 3 Zrotation Xrotation Yrotation
											End Site
											{
												OFFSET	-0.004284	 0.038165	 0.000551
											}
										}
									}
								}
							}
						}
					}
				}
				JOINT Neck
				{
					OFFSET	 0.000000	 0.176489	 0.000000
					CHANNELS 3 Zrotation Xrotation Yrotation
					JOINT Head
					{
						OFFSET	 0.000000	 0.077941	 0.001747
						CHANNELS 3 Zrotation Xrotation Yrotation
						End Site
						{
							OFFSET	 0.000000	 0.077941	 0.001747
						}
					}
				}
				JOINT RightShoulder
				{
					OFFSET	-0.080363	 0.159706	-0.000306
					CHANNELS 3 Zrotation Xrotation Yrotation
					JOINT RightArm
					{
						OFFSET	 0.000000	 0.164196	 0.000000
						CHANNELS 3 Zrotation Xrotation Yrotation
						JOINT RightForeArm
						{
							OFFSET	 0.000000	 0.365611	 0.000000
							CHANNELS 3 Zrotation Xrotation Yrotation
							JOINT RightHand
							{
								OFFSET	 0.000000	 0.360648	 0.000000
								CHANNELS 3 Zrotation Xrotation Yrotation
								JOINT RightHandIndex1
								{
									OFFSET	 0.000000	 0.069977	 0.000000
									CHANNELS 3 Zrotation Xrotation Yrotation
									JOINT RightHandIndex2
									{
										OFFSET	 0.000000	 0.052305	 0.000000
										CHANNELS 3 Zrotation Xrotation Yrotation
										JOINT RightHandIndex3
										{
											OFFSET	 0.009002	 0.042196	 0.000782
											CHANNELS 3 Zrotation Xrotation Yrotation
											End Site
											{
												OFFSET	 0.009002	 0.042196	 0.000782
											}
										}
									}
								}
							}
						}
					}
				}
			}
		}
	}
}
MOTION
Frames:    13
Frame Time: 0.03333334
 0.716205	 1.136580	 0.037291	 8.877214	-3.730707	-41.614160	-174.252600	 12.200510	-27.970920	 5.744603	-47.351180	 8.857352	 80.562650	 50.145260	-105.229300	 1.397985	 23.660680	-7.474005	 132.853100	 12.272220	 64.324300	-7.452961	-56.398960	-6.894907	-56.474080	 58.829240	 74.768830	-1.896805	 31.948610	 3.570086	-0.919411	 6.942728	 23.755000	-5.703248	 1.579211	 4.179017	 7.521672	 7.824265	-9.762164	-105.367200	-10.404100	 98.960370	 66.312330	 21.956500	-42.900840	 9.828770	-0.141738	-13.377220	-14.518160	 8.106790	 85.385120	-5.328700	 15.188720	-6.643753	-7.154729	 8.594560	 2.109854	 4.963066	-4.014628	-0.346955	 14.851350	-8.024716	-8.210312	 1.647210	-2.803082	-48.626990	 88.271190	-3.326226	-91.141220	-21.858640	-8.972764	 85.844010	-9.647385	-0.990168	 20.721620	 12.835650	-31.152340	-41.921130	-2.907143	 16.311900	-3.180925	 14.381210	 23.586780	-6.957032	-8.239867	-2.131385	 0.447455
 0.757769	 1.164325	 0.050851	 7.113470	-3.717572	-39.699650	-175.962400	 10.296160	-26.387070	 4.873993	-42.661480	 7.218911	 77.799510	 49.884500	-99.371690	 1.398008	 23.660660	-7.474018	 142.520300	 15.230550	 52.533970	-6.893480	-54.319400	-6.164186	-61.147150	 60.600510	 80.160710	-1.892406	 31.136710	 3.754827	-0.429270	 6.597418	 16.830780	-6.278020	 0.614578	 3.562503	 7.375832	 7.251001	-11.226650	-107.544900	-14.976500	 100.230600	 67.248490	 19.488490	-42.469610	 7.903007	-0.174233	-8.239865	-14.535310	 7.287107	 76.332270	-6.116312	 15.596940	-6.322484	-7.189343	 8.716264	 2.132619	 4.963066	-4.014628	-0.346955	 13.503670	-8.032101	-10.237540	 2.274356	-1.284439	-48.259900	 89.177150	-1.033388	-91.535710	-19.617100	-8.663888	 78.849460	-7.758846	-0.741239	 14.950490	 21.789810	-31.923310	-26.467050	-2.905823	 16.224180	-3.332711	 14.391060	 23.841940	-7.029875	-8.239867	-2.131385	 0.447455
 0.786422	 1.191329	 0.060617	 4.882383	-4.058108	-39.220460	-176.871600	 6.270108	-25.721350	 3.907204	-36.466610	 5.473477	 73.479100	 49.772420	-92.751450	 1.398021	 23.660640	-7.474026	 149.489500	 14.118870	 44.768860	-5.603837	-48.568680	-4.542778	-57.618160	 60.392130	 76.377710	-1.668352	 30.031640	 3.636815	-0.047475	 6.098254	 9.328615	-5.524575	 0.394250	 3.143281	 5.796675	 5.869053	-11.930470	-108.843200	-19.052400	 101.378800	 68.659210	 17.752330	-43.889650	 5.874485	-0.209345	-2.886492	-15.438350	 3.334182	 66.209780	-6.709546	 15.567880	-6.104842	-7.225824	 8.848825	 2.158109	 4.963066	-4.014628	-0.346955	 11.671010	-8.625173	-11.645840	 1.800795	 0.403927	-47.377330	 90.658650	 0.819873	-91.960830	-18.626700	-8.303269	 72.871690	-5.767109	-0.540750	 9.473557	 25.105100	-29.795870	-13.290270	-2.904308	 16.133480	-3.489681	 14.401630	 24.105710	-7.105349	-8.239867	-2.131385	 0.447455
 0.812124	 1.218616	 0.070249	 2.618927	-4.403285	-38.752080	-177.418900	 2.202131	-25.061310	 3.128350	-30.621480	 3.716830	 69.239290	 49.682140	-86.395730	 1.398034	 23.660640	-7.474034	 155.940000	 11.299670	 36.905510	-4.277085	-40.871420	-2.839506	-51.324860	 59.494490	 69.924910	-1.446895	 28.913760	 3.523800	 0.244920	 5.609753	 1.513579	-4.466118	 0.030165	 2.543785	 4.063077	 4.563596	-12.667080	-110.102800	-23.198490	 102.470400	 70.383720	 16.157290	-45.447850	 4.981614	-0.222554	 2.565782	-16.599220	-2.160477	 54.583930	-7.309230	 15.536280	-5.885118	-7.262790	 8.982855	 2.183982	 4.963066	-4.014628	-0.346955	 9.800361	-9.179078	-13.091030	 1.277182	 2.099181	-46.443450	 92.172290	 2.682174	-92.439800	-17.916380	-7.921826	 66.709980	-4.906158	-0.457285	 4.042883	 28.622250	-29.237100	 1.354910	-2.903040	 16.041750	-3.648337	 14.412730	 24.372440	-7.181880	-8.239867	-2.131385	 0.447455
 0.824618	 1.234164	 0.074916	 1.592703	-4.580260	-39.298490	-178.165400	-0.472028	-25.646670	 2.587760	-26.090380	 2.395522	 66.482950	 49.603310	-82.176630	 1.398039	 23.660630	-7.474036	 159.282900	 9.319846	 32.403740	-3.506040	-35.358440	-1.686934	-47.564140	 58.544800	 65.542450	-1.319785	 28.187160	 3.454837	 0.491117	 5.184073	-6.195312	-3.381362	-0.003530	 2.249790	 2.303892	 3.424360	-12.819280	-110.900900	-26.135120	 102.835700	 71.863320	 15.665160	-46.175800	 7.020560	-0.188105	 8.102922	-18.449010	-5.012268	 43.459110	-7.541159	 15.652990	-5.773510	-7.291977	 9.060710	 2.199906	 4.963066	-4.014628	-0.346955	 8.207140	-9.676070	-13.737780	 0.926200	 2.851277	-45.664520	 92.805190	 4.435604	-92.909070	-17.179570	-7.112539	 62.981870	-6.949999	-0.653276	-1.668587	 29.929140	-29.128930	 14.249440	-2.901601	 15.948200	-3.810180	 14.424460	 24.644410	-7.260115	-8.239867	-2.131385	 0.447455
 0.825389	 1.240303	 0.076076	 1.361914	-4.648888	-40.494090	-178.864800	-1.818879	-26.986070	 2.287069	-23.404530	 1.391662	 65.090350	 49.817940	-80.068020	 1.398039	 23.660620	-7.474037	 160.439300	 8.309664	 29.916420	-3.061312	-31.785010	-0.791836	-45.198450	 57.920070	 62.485980	-1.252474	 27.716210	 3.412494	 0.649998	 4.827637	-13.536510	-1.736721	 0.545889	 1.986348	 0.273143	 2.228396	-12.584290	-111.431200	-28.274050	 102.742100	 73.328920	 15.961820	-46.479320	 9.062154	-0.158691	 13.606900	-20.469450	-6.340116	 32.272010	-7.534770	 15.866130	-5.732004	-7.316002	 9.101974	 2.209311	 4.963066	-4.014628	-0.346955	 6.803477	-10.153340	-13.867110	 0.700855	 3.002853	-45.005280	 92.869430	 6.118638	-93.350360	-16.683050	-6.072257	 60.735930	-8.989527	-0.822109	-7.584018	 29.989830	-29.472070	 26.498220	-2.900163	 15.853810	-3.973456	 14.436740	 24.918800	-7.339252	-8.239867	-2.131385	 0.447455
 0.822390	 1.244425	 0.075417	 1.105551	-4.693537	-41.691090	-179.247800	-2.915028	-28.350440	 2.057186	-21.351130	 0.247483	 63.681140	 50.356750	-78.135490	 1.398039	 23.660610	-7.474038	 161.478500	 7.414362	 27.413540	-2.722420	-28.859620	 0.258182	-43.343110	 57.661080	 59.909990	-1.186196	 27.247800	 3.371168	 0.656083	 4.509439	-20.245260	 0.268582	 1.688496	 1.535351	-1.939125	 0.746854	-12.340740	-111.972200	-30.393880	 102.623700	 74.525470	 15.790570	-46.535950	 11.089360	-0.133186	 19.093620	-22.423390	-7.676937	 20.332410	-7.526855	 16.088410	-5.690027	-7.340076	 9.140907	 2.218339	 4.963066	-4.014628	-0.346955	 5.407975	-10.617640	-13.992950	 0.452867	 3.137233	-44.354610	 92.945790	 7.798157	-93.795170	-16.293700	-5.214839	 58.501100	-11.028740	-0.970257	-13.456050	 30.871220	-30.378470	 39.894260	-2.898964	 15.757480	-4.140004	 14.449720	 25.198780	-7.420259	-8.239867	-2.131385	 0.447455
 0.820122	 1.246160	 0.074325	 0.924225	-4.682962	-42.160140	-179.303500	-3.406577	-28.680750	 1.964066	-20.391630	 0.086557	 63.107010	 50.294430	-77.405980	 1.398028	 23.660610	-7.474034	 161.900400	 6.959938	 27.070990	-2.605481	-27.809980	 0.444848	-42.953840	 57.378770	 59.196820	-1.183954	 27.235020	 3.369525	 0.957616	 4.360805	-25.597770	 0.838524	 1.730485	 1.528742	-2.740578	 0.401461	-12.236500	-111.933600	-30.220200	 102.597200	 74.328810	 15.613240	-46.186070	 13.066550	-0.122459	 24.399630	-22.749140	-8.841914	 10.649850	-7.460574	 16.493400	-5.662818	-7.347375	 9.060890	 2.205293	 4.963066	-4.014628	-0.346955	 5.503394	-10.357280	-13.428430	-0.082772	 2.260346	-44.688200	 92.921580	 8.096180	-93.906350	-16.118070	-4.843834	 58.195420	-13.034300	-1.019961	-19.683580	 33.024650	-33.628160	 51.339810	-2.897277	 15.659980	-4.308682	 14.463310	 25.482080	-7.502421	-8.239867	-2.131385	 0.447455
 0.815861	 1.246792	 0.072015	 0.725876	-4.661869	-42.638040	-179.118500	-3.687012	-28.911290	 1.921727	-19.986730	-0.082605	 62.650810	 50.329990	-77.045750	 1.398018	 23.660610	-7.474029	 162.291900	 6.786559	 26.774100	-2.575270	-27.535330	 0.594998	-43.118940	 57.472090	 59.105410	-1.181677	 27.222030	 3.367855	 1.114684	 4.217868	-29.679040	 1.506731	 2.060270	 1.444433	-3.594567	-0.082678	-12.120830	-111.894400	-30.043750	 102.570100	 73.898650	 15.071870	-45.643500	 14.977000	-0.119768	 29.539810	-23.185850	-9.254381	 0.955163	-7.393296	 16.904900	-5.635618	-7.354808	 8.979596	 2.192030	 4.963066	-4.014628	-0.346955	 5.597588	-10.091810	-12.855780	-0.627190	 1.368278	-45.036580	 92.897570	 8.399026	-94.019260	-15.984260	-4.600117	 57.917350	-14.985340	-0.984526	-25.884720	 35.325350	-36.415730	 63.062750	-2.895868	 15.560920	-4.479973	 14.477620	 25.769900	-7.586175	-8.239867	-2.131385	 0.447455
 0.811540	 1.247200	 0.069068	 0.500011	-4.624092	-43.128990	-178.827300	-3.886644	-29.160140	 1.909035	-19.864770	-0.250979	 62.305040	 50.476170	-76.891650	 1.398007	 23.660610	-7.474022	 162.729700	 6.658494	 26.458820	-2.560511	-27.400070	 0.744356	-43.434990	 57.626350	 59.169030	-1.179343	 27.208700	 3.366144	 1.172815	 4.093628	-32.175350	 2.398211	 2.461263	 1.391177	-4.562428	-0.605227	-12.003030	-111.854100	-29.862800	 102.542200	 73.444250	 14.755380	-45.122330	 16.833360	-0.125737	 34.490990	-23.661660	-8.786863	-8.383629	-7.324349	 17.326970	-5.608182	-7.362452	 8.896220	 2.178420	 4.963066	-4.014628	-0.346955	 5.691312	-9.818605	-12.269420	-1.185856	 0.452466	-45.403900	 92.873540	 8.709673	-94.135020	-15.768190	-4.400349	 57.647340	-16.868670	-0.823973	-32.157140	 37.219950	-38.472160	 74.546190	-2.894743	 15.459310	-4.655566	 14.492820	 26.065070	-7.672371	-8.239867	-2.131385	 0.447455
 0.809834	 1.247236	 0.067364	 0.446751	-4.665490	-43.160400	-178.701300	-3.939868	-29.136940	 1.918798	-19.959070	-0.145845	 62.118260	 50.381090	-76.802830	 1.397995	 23.660620	-7.474017	 162.828800	 6.511986	 26.439080	-2.557144	-27.369700	 0.650046	-43.612740	 57.550610	 59.324130	-1.194224	 27.293410	 3.377052	 1.324593	 4.055801	-32.924510	 2.117048	 2.329246	 1.428339	-4.157812	-0.410264	-12.072540	-111.769400	-29.779920	 102.607700	 73.585500	 14.931620	-45.205230	 18.489470	-0.105640	 38.989230	-22.837850	-10.947160	-16.097220	-7.340034	 17.204690	-5.625402	-7.359314	 8.743653	 2.151914	 4.963066	-4.014628	-0.346955	 6.076484	-9.691609	-11.920250	-1.310322	 0.266599	-45.867160	 92.888860	 8.780650	-94.195200	-15.629140	-4.708191	 57.737220	-18.524520	-0.094855	-39.732340	 41.024860	-38.187580	 85.991650	-2.893091	 15.362710	-4.822657	 14.507730	 26.345640	-7.754507	-8.239867	-2.131385	 0.447455
 0.808295	 1.247074	 0.065275	 0.388705	-4.701263	-43.160680	-178.511500	-3.915129	-29.081820	 1.953038	-20.286170	-0.018815	 62.044540	 50.334150	-76.898280	 1.397982	 23.660620	-7.474009	 162.933300	 6.392951	 26.443550	-2.565402	-27.444800	 0.538212	-43.874500	 57.513540	 59.581900	-1.210029	 27.383190	 3.388650	 1.395648	 4.049591	-32.049960	 1.919334	 2.211344	 1.493538	-3.743001	-0.191128	-12.151850	-111.683500	-29.704990	 102.678100	 73.775730	 15.324190	-45.369920	 19.982350	-0.083361	 43.023110	-22.176630	-12.026590	-22.607270	-7.361157	 17.048050	-5.645338	-7.355582	 8.589142	 2.125033	 4.963066	-4.014628	-0.346955	 6.473728	-9.574523	-11.594050	-1.405971	 0.134832	-46.328050	 92.906590	 8.834286	-94.250600	-15.455370	-5.081631	 57.857080	-19.973490	 0.624204	-46.172280	 43.061110	-37.311100	 94.621060	-2.891695	 15.268150	-4.986148	 14.522790	 26.620240	-7.835170	-8.239867	-2.131385	 0.447455
 0.807028	 1.246884	 0.063319	 0.327052	-4.731352	-43.161270	-178.319500	-3.873307	-29.027820	 1.991300	-20.650390	 0.101949	 62.010500	 50.305530	-77.035220	 1.397969	 23.660630	-7.474002	 163.037400	 6.304729	 26.450290	-2.576797	-27.549240	 0.432155	-44.137400	 57.483920	 59.835300	-1.225176	 27.469050	 3.399776	 1.369573	 4.078424	-29.758520	 1.793838	 2.116600	 1.578416	-3.376875	 0.010641	-12.227370	-111.601400	-29.633270	 102.745300	 73.949070	 15.743090	-45.527320	 21.272440	-0.061715	 46.493790	-21.891460	-11.772170	-27.703720	-7.381395	 16.898250	-5.664445	-7.352083	 8.441376	 2.099345	 4.963066	-4.014628	-0.346955	 6.852860	-9.460466	-11.282980	-1.499838	 0.010573	-46.768690	 92.923580	 8.885553	-94.303580	-15.234630	-5.440567	 57.975580	-21.197180	 1.281271	-51.482170	 43.342300	-35.980500	 100.416500	-2.890623	 15.177710	-5.142430	 14.537640	 26.882840	-7.912570	-8.239867	-2.131385	 0.447455
